<mxfile host="app.diagrams.net" agent="Mozilla/5.0 (Windows NT 10.0; Win64; x64; rv:140.0) Gecko/20100101 Firefox/140.0" version="27.1.4">
  <diagram name="Page-1" id="DDE_P8cg3vUPYPFOmgAO">
    <mxGraphModel dx="695" dy="420" grid="1" gridSize="10" guides="1" tooltips="1" connect="1" arrows="1" fold="1" page="1" pageScale="1" pageWidth="827" pageHeight="1169" math="1" shadow="0">
      <root>
        <mxCell id="0" />
        <mxCell id="1" parent="0" />
        <mxCell id="GIuxkB_nh06wqcdbbJOn-50" value="" style="html=1;dropTarget=0;whiteSpace=wrap;" parent="1" vertex="1">
          <mxGeometry x="16" y="10" width="375.79" height="170" as="geometry" />
        </mxCell>
        <mxCell id="GIuxkB_nh06wqcdbbJOn-51" value="" style="shape=module;jettyWidth=8;jettyHeight=4;" parent="GIuxkB_nh06wqcdbbJOn-50" vertex="1">
          <mxGeometry x="1" width="20" height="20" relative="1" as="geometry">
            <mxPoint x="-27" y="7" as="offset" />
          </mxGeometry>
        </mxCell>
        <mxCell id="GIuxkB_nh06wqcdbbJOn-52" value="Interfejs użytkownika" style="html=1;dropTarget=0;whiteSpace=wrap;" parent="1" vertex="1">
          <mxGeometry x="36" y="70" width="140" height="70" as="geometry" />
        </mxCell>
        <mxCell id="GIuxkB_nh06wqcdbbJOn-53" value="" style="shape=module;jettyWidth=8;jettyHeight=4;" parent="GIuxkB_nh06wqcdbbJOn-52" vertex="1">
          <mxGeometry x="1" width="20" height="20" relative="1" as="geometry">
            <mxPoint x="-27" y="7" as="offset" />
          </mxGeometry>
        </mxCell>
        <mxCell id="GIuxkB_nh06wqcdbbJOn-54" value="&lt;div&gt;Kontroler aplikacji&lt;/div&gt;" style="html=1;dropTarget=0;whiteSpace=wrap;" parent="1" vertex="1">
          <mxGeometry x="231" y="70" width="140" height="70" as="geometry" />
        </mxCell>
        <mxCell id="GIuxkB_nh06wqcdbbJOn-55" value="" style="shape=module;jettyWidth=8;jettyHeight=4;" parent="GIuxkB_nh06wqcdbbJOn-54" vertex="1">
          <mxGeometry x="1" width="20" height="20" relative="1" as="geometry">
            <mxPoint x="-27" y="7" as="offset" />
          </mxGeometry>
        </mxCell>
        <mxCell id="GIuxkB_nh06wqcdbbJOn-56" value="Aplikacja przeglądarkowa" style="text;strokeColor=none;align=center;fillColor=none;html=1;verticalAlign=middle;whiteSpace=wrap;rounded=0;" parent="1" vertex="1">
          <mxGeometry x="129.4" y="20" width="149" height="33" as="geometry" />
        </mxCell>
        <mxCell id="GIuxkB_nh06wqcdbbJOn-57" value="" style="rounded=0;orthogonalLoop=1;jettySize=auto;html=1;endArrow=halfCircle;endFill=0;endSize=6;strokeWidth=1;sketch=0;" parent="1" source="GIuxkB_nh06wqcdbbJOn-52" target="GIuxkB_nh06wqcdbbJOn-59" edge="1">
          <mxGeometry relative="1" as="geometry">
            <mxPoint x="206" y="120" as="sourcePoint" />
          </mxGeometry>
        </mxCell>
        <mxCell id="GIuxkB_nh06wqcdbbJOn-58" value="" style="rounded=0;orthogonalLoop=1;jettySize=auto;html=1;endArrow=oval;endFill=0;sketch=0;sourcePerimeterSpacing=0;targetPerimeterSpacing=0;endSize=10;" parent="1" source="GIuxkB_nh06wqcdbbJOn-54" target="GIuxkB_nh06wqcdbbJOn-59" edge="1">
          <mxGeometry relative="1" as="geometry">
            <mxPoint x="246" y="120" as="sourcePoint" />
          </mxGeometry>
        </mxCell>
        <mxCell id="GIuxkB_nh06wqcdbbJOn-59" value="" style="ellipse;whiteSpace=wrap;html=1;align=center;aspect=fixed;fillColor=none;strokeColor=none;resizable=0;perimeter=centerPerimeter;rotatable=0;allowArrows=0;points=[];outlineConnect=1;" parent="1" vertex="1">
          <mxGeometry x="198.9" y="100" width="10" height="10" as="geometry" />
        </mxCell>
        <mxCell id="GIuxkB_nh06wqcdbbJOn-60" value="" style="html=1;dropTarget=0;whiteSpace=wrap;" parent="1" vertex="1">
          <mxGeometry x="436" y="10" width="375.79" height="310" as="geometry" />
        </mxCell>
        <mxCell id="GIuxkB_nh06wqcdbbJOn-61" value="" style="shape=module;jettyWidth=8;jettyHeight=4;" parent="GIuxkB_nh06wqcdbbJOn-60" vertex="1">
          <mxGeometry x="1" width="20" height="20" relative="1" as="geometry">
            <mxPoint x="-27" y="7" as="offset" />
          </mxGeometry>
        </mxCell>
        <mxCell id="GIuxkB_nh06wqcdbbJOn-62" value="Serwer FastAPI" style="html=1;dropTarget=0;whiteSpace=wrap;" parent="1" vertex="1">
          <mxGeometry x="456" y="70" width="140" height="70" as="geometry" />
        </mxCell>
        <mxCell id="GIuxkB_nh06wqcdbbJOn-63" value="" style="shape=module;jettyWidth=8;jettyHeight=4;" parent="GIuxkB_nh06wqcdbbJOn-62" vertex="1">
          <mxGeometry x="1" width="20" height="20" relative="1" as="geometry">
            <mxPoint x="-27" y="7" as="offset" />
          </mxGeometry>
        </mxCell>
        <mxCell id="GIuxkB_nh06wqcdbbJOn-64" value="Klaster Apache Spark" style="html=1;dropTarget=0;whiteSpace=wrap;" parent="1" vertex="1">
          <mxGeometry x="651" y="70" width="140" height="70" as="geometry" />
        </mxCell>
        <mxCell id="GIuxkB_nh06wqcdbbJOn-65" value="" style="shape=module;jettyWidth=8;jettyHeight=4;" parent="GIuxkB_nh06wqcdbbJOn-64" vertex="1">
          <mxGeometry x="1" width="20" height="20" relative="1" as="geometry">
            <mxPoint x="-27" y="7" as="offset" />
          </mxGeometry>
        </mxCell>
        <mxCell id="GIuxkB_nh06wqcdbbJOn-66" value="Serwer aplikacji" style="text;strokeColor=none;align=center;fillColor=none;html=1;verticalAlign=middle;whiteSpace=wrap;rounded=0;" parent="1" vertex="1">
          <mxGeometry x="549.4" y="20" width="149" height="33" as="geometry" />
        </mxCell>
        <mxCell id="GIuxkB_nh06wqcdbbJOn-67" value="" style="rounded=0;orthogonalLoop=1;jettySize=auto;html=1;endArrow=halfCircle;endFill=0;endSize=6;strokeWidth=1;sketch=0;" parent="1" source="GIuxkB_nh06wqcdbbJOn-62" target="GIuxkB_nh06wqcdbbJOn-69" edge="1">
          <mxGeometry relative="1" as="geometry">
            <mxPoint x="626" y="120" as="sourcePoint" />
          </mxGeometry>
        </mxCell>
        <mxCell id="GIuxkB_nh06wqcdbbJOn-68" value="" style="rounded=0;orthogonalLoop=1;jettySize=auto;html=1;endArrow=oval;endFill=0;sketch=0;sourcePerimeterSpacing=0;targetPerimeterSpacing=0;endSize=10;" parent="1" source="GIuxkB_nh06wqcdbbJOn-64" target="GIuxkB_nh06wqcdbbJOn-69" edge="1">
          <mxGeometry relative="1" as="geometry">
            <mxPoint x="666" y="120" as="sourcePoint" />
          </mxGeometry>
        </mxCell>
        <mxCell id="GIuxkB_nh06wqcdbbJOn-69" value="" style="ellipse;whiteSpace=wrap;html=1;align=center;aspect=fixed;fillColor=none;strokeColor=none;resizable=0;perimeter=centerPerimeter;rotatable=0;allowArrows=0;points=[];outlineConnect=1;" parent="1" vertex="1">
          <mxGeometry x="618.9" y="100" width="10" height="10" as="geometry" />
        </mxCell>
        <mxCell id="GIuxkB_nh06wqcdbbJOn-72" value="" style="rounded=0;orthogonalLoop=1;jettySize=auto;html=1;endArrow=halfCircle;endFill=0;endSize=6;strokeWidth=1;sketch=0;" parent="1" source="GIuxkB_nh06wqcdbbJOn-54" edge="1">
          <mxGeometry relative="1" as="geometry">
            <mxPoint x="386" y="104.88999999999999" as="sourcePoint" />
            <mxPoint x="414" y="104.88999999999999" as="targetPoint" />
          </mxGeometry>
        </mxCell>
        <mxCell id="GIuxkB_nh06wqcdbbJOn-73" value="" style="rounded=0;orthogonalLoop=1;jettySize=auto;html=1;endArrow=oval;endFill=0;sketch=0;sourcePerimeterSpacing=0;targetPerimeterSpacing=0;endSize=10;" parent="1" source="GIuxkB_nh06wqcdbbJOn-62" edge="1">
          <mxGeometry relative="1" as="geometry">
            <mxPoint x="441" y="104.88999999999999" as="sourcePoint" />
            <mxPoint x="414" y="104.88999999999999" as="targetPoint" />
          </mxGeometry>
        </mxCell>
        <mxCell id="GIuxkB_nh06wqcdbbJOn-74" value="Komponent obsługi zapytań przestrzennych" style="html=1;dropTarget=0;whiteSpace=wrap;" parent="1" vertex="1">
          <mxGeometry x="456" y="200" width="140" height="90" as="geometry" />
        </mxCell>
        <mxCell id="GIuxkB_nh06wqcdbbJOn-75" value="" style="shape=module;jettyWidth=8;jettyHeight=4;" parent="GIuxkB_nh06wqcdbbJOn-74" vertex="1">
          <mxGeometry x="1" width="20" height="20" relative="1" as="geometry">
            <mxPoint x="-27" y="7" as="offset" />
          </mxGeometry>
        </mxCell>
        <mxCell id="GIuxkB_nh06wqcdbbJOn-76" value="" style="rounded=0;orthogonalLoop=1;jettySize=auto;html=1;endArrow=halfCircle;endFill=0;endSize=6;strokeWidth=1;sketch=0;" parent="1" source="GIuxkB_nh06wqcdbbJOn-62" edge="1">
          <mxGeometry relative="1" as="geometry">
            <mxPoint x="498.5" y="169.9" as="sourcePoint" />
            <mxPoint x="526.5" y="169.9" as="targetPoint" />
          </mxGeometry>
        </mxCell>
        <mxCell id="GIuxkB_nh06wqcdbbJOn-77" value="" style="rounded=0;orthogonalLoop=1;jettySize=auto;html=1;endArrow=oval;endFill=0;sketch=0;sourcePerimeterSpacing=0;targetPerimeterSpacing=0;endSize=10;" parent="1" source="GIuxkB_nh06wqcdbbJOn-74" edge="1">
          <mxGeometry relative="1" as="geometry">
            <mxPoint x="553.5" y="169.9" as="sourcePoint" />
            <mxPoint x="526.5" y="169.9" as="targetPoint" />
          </mxGeometry>
        </mxCell>
        <mxCell id="GIuxkB_nh06wqcdbbJOn-78" value="Użytkownik" style="shape=umlActor;verticalLabelPosition=bottom;verticalAlign=top;html=1;" parent="1" vertex="1">
          <mxGeometry x="170" y="490" width="30" height="60" as="geometry" />
        </mxCell>
        <mxCell id="GIuxkB_nh06wqcdbbJOn-85" value="Serwer aplikacji" style="shape=umlLifeline;perimeter=lifelinePerimeter;whiteSpace=wrap;html=1;container=1;dropTarget=0;collapsible=0;recursiveResize=0;outlineConnect=0;portConstraint=eastwest;newEdgeStyle={&quot;edgeStyle&quot;:&quot;elbowEdgeStyle&quot;,&quot;elbow&quot;:&quot;vertical&quot;,&quot;curved&quot;:0,&quot;rounded&quot;:0};" parent="1" vertex="1">
          <mxGeometry x="640" y="530" width="100" height="260" as="geometry" />
        </mxCell>
        <mxCell id="GIuxkB_nh06wqcdbbJOn-91" value="" style="html=1;points=[[0,0,0,0,5],[0,1,0,0,-5],[1,0,0,0,5],[1,1,0,0,-5]];perimeter=orthogonalPerimeter;outlineConnect=0;targetShapes=umlLifeline;portConstraint=eastwest;newEdgeStyle={&quot;curved&quot;:0,&quot;rounded&quot;:0};" parent="GIuxkB_nh06wqcdbbJOn-85" vertex="1">
          <mxGeometry x="45" y="150" width="10" height="40" as="geometry" />
        </mxCell>
        <mxCell id="GIuxkB_nh06wqcdbbJOn-87" value="Aplikacja przeglądarkowa" style="shape=umlLifeline;perimeter=lifelinePerimeter;whiteSpace=wrap;html=1;container=1;dropTarget=0;collapsible=0;recursiveResize=0;outlineConnect=0;portConstraint=eastwest;newEdgeStyle={&quot;edgeStyle&quot;:&quot;elbowEdgeStyle&quot;,&quot;elbow&quot;:&quot;vertical&quot;,&quot;curved&quot;:0,&quot;rounded&quot;:0};" parent="1" vertex="1">
          <mxGeometry x="364" y="530" width="100" height="260" as="geometry" />
        </mxCell>
        <mxCell id="GIuxkB_nh06wqcdbbJOn-88" value="" style="html=1;points=[[0,0,0,0,5],[0,1,0,0,-5],[1,0,0,0,5],[1,1,0,0,-5]];perimeter=orthogonalPerimeter;outlineConnect=0;targetShapes=umlLifeline;portConstraint=eastwest;newEdgeStyle={&quot;curved&quot;:0,&quot;rounded&quot;:0};" parent="GIuxkB_nh06wqcdbbJOn-87" vertex="1">
          <mxGeometry x="45" y="80" width="10" height="140" as="geometry" />
        </mxCell>
        <mxCell id="GIuxkB_nh06wqcdbbJOn-90" value="" style="endArrow=none;dashed=1;html=1;rounded=0;" parent="1" edge="1">
          <mxGeometry width="50" height="50" relative="1" as="geometry">
            <mxPoint x="185" y="790" as="sourcePoint" />
            <mxPoint x="185" y="570" as="targetPoint" />
          </mxGeometry>
        </mxCell>
        <mxCell id="GIuxkB_nh06wqcdbbJOn-92" value="" style="html=1;points=[[0,0,0,0,5],[0,1,0,0,-5],[1,0,0,0,5],[1,1,0,0,-5]];perimeter=orthogonalPerimeter;outlineConnect=0;targetShapes=umlLifeline;portConstraint=eastwest;newEdgeStyle={&quot;curved&quot;:0,&quot;rounded&quot;:0};" parent="1" vertex="1">
          <mxGeometry x="180" y="610" width="10" height="140" as="geometry" />
        </mxCell>
        <mxCell id="GIuxkB_nh06wqcdbbJOn-93" value="Zwróć wynik następnej tury" style="html=1;verticalAlign=bottom;endArrow=open;dashed=1;endSize=8;curved=0;rounded=0;" parent="1" edge="1">
          <mxGeometry x="0.0008" relative="1" as="geometry">
            <mxPoint x="684" y="720" as="sourcePoint" />
            <mxPoint x="418" y="720" as="targetPoint" />
            <mxPoint as="offset" />
          </mxGeometry>
        </mxCell>
        <mxCell id="GIuxkB_nh06wqcdbbJOn-94" value="Rozpocznij grę" style="html=1;verticalAlign=bottom;endArrow=block;curved=0;rounded=0;" parent="1" target="GIuxkB_nh06wqcdbbJOn-88" edge="1">
          <mxGeometry width="80" relative="1" as="geometry">
            <mxPoint x="190" y="610" as="sourcePoint" />
            <mxPoint x="499" y="610" as="targetPoint" />
          </mxGeometry>
        </mxCell>
        <mxCell id="GIuxkB_nh06wqcdbbJOn-95" value="Wyślij zapytanie z aktualnym stanem gry" style="html=1;verticalAlign=bottom;endArrow=block;curved=0;rounded=0;" parent="1" target="GIuxkB_nh06wqcdbbJOn-91" edge="1">
          <mxGeometry x="0.0005" width="80" relative="1" as="geometry">
            <mxPoint x="418" y="680" as="sourcePoint" />
            <mxPoint x="714.9999999999998" y="680" as="targetPoint" />
            <mxPoint as="offset" />
          </mxGeometry>
        </mxCell>
        <mxCell id="GIuxkB_nh06wqcdbbJOn-99" value="loop" style="shape=umlFrame;whiteSpace=wrap;html=1;pointerEvents=0;" parent="1" vertex="1">
          <mxGeometry x="19" y="640" width="790" height="130" as="geometry" />
        </mxCell>
        <mxCell id="GIuxkB_nh06wqcdbbJOn-100" value="Wyświetl wyniki tury" style="html=1;verticalAlign=bottom;endArrow=open;dashed=1;endSize=8;curved=0;rounded=0;" parent="1" edge="1">
          <mxGeometry relative="1" as="geometry">
            <mxPoint x="408" y="750.0000000000001" as="sourcePoint" />
            <mxPoint x="189" y="750" as="targetPoint" />
          </mxGeometry>
        </mxCell>
        <mxCell id="GIuxkB_nh06wqcdbbJOn-101" value="[przez podaną ilość tur]" style="text;strokeColor=none;align=center;fillColor=none;html=1;verticalAlign=middle;whiteSpace=wrap;rounded=0;" parent="1" vertex="1">
          <mxGeometry x="35" y="680" width="130" height="30" as="geometry" />
        </mxCell>
      </root>
    </mxGraphModel>
  </diagram>
</mxfile>
